<svg xmlns="http://www.w3.org/2000/svg" xmlns:xlink="http://www.w3.org/1999/xlink" id="&#x421;&#x43B;&#x43E;&#x439;_1" x="0px" y="0px" viewBox="0 0 209 209" style="enable-background:new 0 0 209 209;" xml:space="preserve"><style type="text/css">	.st0{fill:#FFFFFF;}	.st1{fill:#C11C22;}</style><circle class="st0" cx="104.5" cy="104.5" r="104.5"></circle><g>	<path class="st1" d="M107.1,144.3c17.8,0,35.7-3,52.7-8.9l1.2-0.5v-11.8l-6.4-1.8v-7.8c0-18.3-10.5-34.9-26.9-42.8v-1.9  c0-3.6-2.8-6.4-6.4-6.4H109v-3.7h-3.7v3.7H92.9c-3.6,0-6.4,2.8-6.4,6.4v1.9c-16.4,7.9-26.9,24.6-26.9,42.8v7.8l-6.4,1.8v11.8  l1.2,0.5C71.4,141.3,89.3,144.3,107.1,144.3z M56.8,125.9l6.4-1.8v-10.6c0-16.2,9-31.1,23.3-38.7v16.8h3.7V68.8  c0-1.6,1.2-2.7,2.7-2.7h12.3v38.3h3.7V66h12.3c1.6,0,2.7,1.2,2.7,2.7v22.8h3.7V74.8c14.2,7.6,23.3,22.5,23.3,38.7V124l6.4,1.8v6.5  c-32.4,11-68,11-100.4,0L56.8,125.9L56.8,125.9z"></path>	<rect x="75.1" y="120.8" class="st1" width="63.9" height="3.7"></rect></g></svg>