<svg xmlns="http://www.w3.org/2000/svg" xmlns:xlink="http://www.w3.org/1999/xlink" id="&#x421;&#x43B;&#x43E;&#x439;_1" x="0px" y="0px" viewBox="0 0 26 16" style="enable-background:new 0 0 26 16;" xml:space="preserve"><style type="text/css">	.st0{fill:#C11C22;}</style><g id="Layer_2">	<path class="st0" d="M25,2H1C0.4,2,0,1.6,0,1s0.4-1,1-1h24c0.6,0,1,0.4,1,1S25.6,2,25,2z"></path>	<path class="st0" d="M25,9H1C0.4,9,0,8.6,0,8s0.4-1,1-1h24c0.6,0,1,0.4,1,1C26,8.6,25.6,9,25,9z"></path>	<path class="st0" d="M25,16H1c-0.6,0-1-0.4-1-1s0.4-1,1-1h24c0.6,0,1,0.4,1,1S25.6,16,25,16z"></path></g></svg>