<svg xmlns="http://www.w3.org/2000/svg" xmlns:xlink="http://www.w3.org/1999/xlink" id="&#x421;&#x43B;&#x43E;&#x439;_1" x="0px" y="0px" viewBox="0 0 26 26" style="enable-background:new 0 0 26 26;" xml:space="preserve"><style type="text/css">	.st0{fill:#C11C22;}</style><path class="st0" d="M13,0C5.8,0,0,5.8,0,13s5.8,13,13,13s13-5.8,13-13S20.2,0,13,0z M19.2,19.2L19.2,19.2c-0.2,0.2-0.5,0.3-0.7,0.3 c-0.3,0-0.5-0.1-0.7-0.3l-5.5-5.5C12.1,13.5,12,13.3,12,13V5c0-0.6,0.4-1,1-1s1,0.4,1,1v7.6l5.2,5.2C19.6,18.2,19.6,18.8,19.2,19.2z "></path></svg>