<svg xmlns:svgjs="http://svgjs.com/svgjs" xmlns="http://www.w3.org/2000/svg" xmlns:xlink="http://www.w3.org/1999/xlink" id="&#x421;&#x43B;&#x43E;&#x439;_1" x="0px" y="0px" viewBox="0 0 512 512" style="enable-background:new 0 0 512 512;" xml:space="preserve"><style type="text/css">	.st0{fill:#C11C22;}</style><g>	<g>		<g>			<path class="st0" d="M470.9,336.1c-31.3,0-62.1-4.9-91.3-14.5c-14.3-4.9-31.9-0.4-40.6,8.6l-57.6,43.5    c-66.8-35.6-107.9-76.8-143-143l42.2-56.1c11-10.9,14.9-26.9,10.2-41.9c-9.7-29.3-14.6-60.1-14.6-91.4    c0-22.7-18.4-41.1-41.1-41.1h-94C18.4,0,0,18.4,0,41.1C0,300.8,211.3,512,470.9,512c22.7,0,41.1-18.4,41.1-41.1v-93.8    C512,354.5,493.6,336.1,470.9,336.1z"></path>		</g>	</g></g></svg>