<svg xmlns="http://www.w3.org/2000/svg" xmlns:xlink="http://www.w3.org/1999/xlink" id="&#x421;&#x43B;&#x43E;&#x439;_1" x="0px" y="0px" viewBox="0 0 209 209" style="enable-background:new 0 0 209 209;" xml:space="preserve"><style type="text/css">	.st0{fill:#191E21;}	.st1{fill:#C11C22;}</style><circle class="st0" cx="104.5" cy="104.5" r="104.5"></circle><path class="st1" d="M106.2,156c-1.3,0-2.6-0.5-3.6-1.5l-24.2-24.2c-7.7-7.7-12-18.1-11.9-29c0-10.5,4.2-20.6,11.7-28 c15.6-15.2,40.5-15.2,56,0l0,0c7.5,7.4,11.7,17.5,11.7,28c0.1,10.9-4.2,21.3-11.9,29l-24.2,24.1C108.9,155.5,107.6,156,106.2,156z  M106.2,66.4c-9.3,0-18.3,3.6-24.9,10.2c-6.7,6.6-10.4,15.5-10.3,24.9c-0.1,9.7,3.8,19,10.6,25.8l24.2,24.1c0.3,0.3,0.7,0.3,0.9,0 l0,0l24.2-24.1c6.9-6.8,10.7-16.2,10.6-25.8c0-9.3-3.7-18.3-10.3-24.9l0,0C124.5,70,115.5,66.3,106.2,66.4z"></path><path class="st1" d="M106.2,121.8c-11.1,0-20-9-20-20c0-11.1,9-20,20-20c11.1,0,20,9,20,20c0,5.3-2.1,10.4-5.9,14.1 C116.6,119.7,111.5,121.8,106.2,121.8z M106.2,86.1c-8.6,0-15.6,7-15.6,15.6s7,15.6,15.6,15.6s15.6-7,15.6-15.6 c0-4.1-1.7-8.1-4.6-11l0,0C114.3,87.8,110.4,86.1,106.2,86.1z"></path></svg>