<svg xmlns="http://www.w3.org/2000/svg" xmlns:xlink="http://www.w3.org/1999/xlink" id="&#x421;&#x43B;&#x43E;&#x439;_1" x="0px" y="0px" viewBox="0 0 209 209" style="enable-background:new 0 0 209 209;" xml:space="preserve"><style type="text/css">	.st0{fill:#191E21;}	.st1{fill:#C11C22;}</style><circle class="st0" cx="104.5" cy="104.5" r="104.5"></circle><g>	<g>		<path class="st1" d="M129.3,155.7c-3.8,0-8.3-0.9-13.3-2.8c-11-4.1-22.9-12.3-33.7-23.1s-18.9-22.7-23.1-33.7   c-3.8-10-3.8-18.2,0-21.9c0.5-0.5,1.1-1.1,1.7-1.7c3.4-3.6,7.4-7.7,12.4-7.5c3.5,0.1,7,2.3,10.5,6.7c10.4,12.9,5.7,17.5,0.3,22.8   l-1,0.9c-0.9,0.9-2.6,5,13,20.5c5.1,5.1,9.4,8.8,12.9,11c2.2,1.4,6.1,3.6,7.7,2l1-1c5.3-5.4,9.9-10.1,22.8,0.3   c4.4,3.5,6.6,6.9,6.7,10.5c0.2,5.1-3.9,9-7.5,12.4c-0.6,0.6-1.2,1.1-1.7,1.6C136,154.7,133.1,155.7,129.3,155.7z M72.9,68   c-3.6,0-6.9,3.5-9.9,6.5c-0.6,0.6-1.2,1.2-1.7,1.8C58.5,79.1,58.8,86.4,62,95c4,10.6,11.9,22.2,22.4,32.6s22,18.4,32.6,22.4   c8.6,3.2,15.9,3.5,18.7,0.7c0.6-0.6,1.2-1.1,1.8-1.7c3.1-3,6.7-6.4,6.5-10.1c-0.1-2.6-2-5.3-5.6-8.2c-10.7-8.6-13.7-5.6-18.7-0.5   l-1,1c-2.4,2.4-6.2,1.9-11.5-1.6c-3.6-2.4-8.1-6.2-13.4-11.4l0,0c-12.9-12.9-17-20.8-13-24.8l1-1c5.1-5,8.1-8-0.5-18.7   c-2.9-3.6-5.7-5.5-8.2-5.6C73.1,68,73,68,72.9,68z"></path>	</g>	<g>		<path class="st1" d="M129.8,102.5c-0.2,0-0.4,0-0.6-0.1c-0.8-0.3-1.2-1.2-0.8-2c1.9-4.8,0.8-10.2-2.8-13.9   c-3.7-3.7-9.5-4.8-14.3-2.6c-0.8,0.3-1.7,0-2-0.8s0-1.7,0.8-2c6-2.7,13.1-1.4,17.8,3.2c4.5,4.5,5.9,11.3,3.5,17.2   C131,102.1,130.4,102.5,129.8,102.5z"></path>		<path class="st1" d="M143.5,108c-0.2,0-0.4,0-0.6-0.1c-0.8-0.3-1.2-1.2-0.8-2c4.2-10.3,1.8-22-6-29.8c-8-8-20.4-10.3-30.8-5.6   c-0.8,0.3-1.7,0-2-0.8s0-1.7,0.8-2c11.5-5.2,25.3-2.7,34.2,6.2c8.7,8.7,11.3,21.7,6.7,33.1C144.6,107.6,144.1,108,143.5,108z"></path>	</g></g></svg>