<svg xmlns="http://www.w3.org/2000/svg" xmlns:xlink="http://www.w3.org/1999/xlink" id="&#x421;&#x43B;&#x43E;&#x439;_1" x="0px" y="0px" viewBox="0 0 517.4 116.6" style="enable-background:new 0 0 517.4 116.6;" xml:space="preserve"><style type="text/css">	.st0{display:none;}	.st1{display:inline;fill:#272E33;}	.st2{fill:#272E33;}</style><g class="st0">	<path class="st1" d="M59.1,105.7l-11-25.3H-1.5l-10.9,25.3h-5.1l39-89.8h3.7l39,89.8H59.1z M23.3,22.5L0.7,76H46L34.5,48.7  L23.3,22.5z"></path>	<path class="st1" d="M168.7,105.7h-7.6l-54.4-43.3v43.3h-4.8V16.2h4.8v44.6l50.2-44.6h7l-51.1,45.2L168.7,105.7z"></path>	<path class="st1" d="M274.6,105.7l-11-25.3h-49.5l-10.9,25.3h-5.1l39-89.8h3.7l39,89.8H274.6z M238.8,22.5L216.2,76h45.3L250,48.7  L238.8,22.5z"></path>	<path class="st1" d="M307.4,66.6v-4.4h39.2v4.4H307.4z"></path>	<path class="st1" d="M386.4,105.7V16.2h56.5v4.4h-51.7v85.1H386.4z"></path>	<path class="st1" d="M514,16.2c10.4,0,18.3,2.4,23.6,7.2s7.9,11.9,7.9,21.3c0,9.7-2.8,17.2-8.5,22.3s-13.8,7.7-24.5,7.7h-26.4v31  h-4.8V16.2H514z M512.4,70.3c9.1,0,16.1-2.2,21-6.5c4.9-4.4,7.3-10.7,7.3-19c0-7.9-2.3-13.9-6.9-18c-4.6-4.1-11.3-6.2-20.1-6.2H486  v49.7H512.4z"></path></g><g>	<path class="st2" d="M22.1,10.3h2v31.3h-3.7V19.2L9.2,35.9H7.4L-3.7,19.4v22.2h-3.7V10.3h2L8.4,31L22.1,10.3z"></path>	<path class="st2" d="M58.7,41.6l-3.4-7.5H39.9l-3.3,7.5h-4l14-31.3h2.2l14.1,31.3H58.7z M47.6,16l-2.9,6.7l-3.3,7.9h12.3l-3.3-7.9  L47.6,16z"></path>	<path class="st2" d="M71.2,41.6v-31h3.7v15.1h17.6V10.5h3.7v31h-3.7V29.1H74.9v12.5H71.2z"></path>	<path class="st2" d="M121.9,42.1c-4.8,0-8.6-1.5-11.4-4.4c-2.9-2.9-4.3-6.9-4.3-11.8s1.4-8.8,4.3-11.6c2.9-2.8,6.7-4.2,11.4-4.2  c5.7,0,10.1,2,13.3,5.9l-2.9,2.4c-2.5-3.3-6-4.9-10.4-4.9c-3.5,0-6.4,1.1-8.6,3.3c-2.2,2.2-3.3,5.3-3.3,9.1s1.1,6.9,3.3,9.3  s5.1,3.5,8.6,3.5c4.5,0,8-1.6,10.4-4.9l2.9,2.4C132.1,40.1,127.6,42.1,121.9,42.1z"></path>	<path class="st2" d="M153.5,41.6V14h-10.6v-3.4h25.1V14h-10.6v27.6H153.5z"></path>	<path class="st2" d="M189.6,10.5c7.6,0,11.4,3.5,11.4,10.5c0,7.2-4.2,10.7-12.6,10.7h-7.4v9.8h-3.7v-31H189.6z M188.2,28.3  c6,0,9-2.4,9-7.3c0-4.7-2.7-7.1-8-7.1h-8.1v14.3H188.2z"></path>	<path class="st2" d="M225.1,42.1c-4.8,0-8.7-1.5-11.7-4.4c-3.1-2.9-4.6-6.8-4.6-11.7c0-4.7,1.5-8.6,4.5-11.6c3-3,7-4.5,11.9-4.5  c4.8,0,8.7,1.5,11.8,4.4s4.6,6.8,4.6,11.7c0,4.7-1.5,8.5-4.5,11.5S230,42.1,225.1,42.1z M225.1,38.6c3.6,0,6.6-1.1,9-3.4  s3.6-5.3,3.6-9.2c0-3.7-1.2-6.7-3.5-9.1c-2.3-2.4-5.4-3.5-9.1-3.5c-3.6,0-6.6,1.2-9,3.5c-2.4,2.3-3.6,5.4-3.6,9.2  c0,3.7,1.2,6.7,3.5,9C218.3,37.5,221.3,38.6,225.1,38.6z"></path>	<path class="st2" d="M276.1,10.1h1.9v31.4h-3.7V17.7l-20.9,24.2h-1.9V10.5h3.7v23.8L276.1,10.1z M264.7,7.9c-4.3,0-6.6-2-7-6.1h2.7  c0.4,2.2,1.8,3.3,4.2,3.3c2.5,0,3.9-1.1,4.2-3.3h2.8C271.3,5.9,269,7.9,264.7,7.9z"></path>	<path class="st2" d="M315.5,41.6h-5.6l-16.6-15v15h-3.7v-31h3.7v15.2l15.3-15.2h5.2L298.2,26L315.5,41.6z"></path>	<path class="st2" d="M347.1,41.6l-3.4-7.5h-15.5l-3.3,7.5h-4l14-31.3h2.2l14.1,31.3H347.1z M336,16l-2.9,6.7l-3.3,7.9h12.3  l-3.3-7.9L336,16z"></path>	<path class="st2" d="M359.6,41.6v-31h25.3v31h-3.7V14h-18v27.6H359.6z"></path>	<path class="st2" d="M421.1,10.1h1.9v31.4h-3.7V17.7l-20.9,24.2h-1.9V10.5h3.7v23.8L421.1,10.1z"></path>	<path class="st2" d="M443,41.6V14h-10.6v-3.4h25.1V14h-10.6v27.6H443z"></path>	<path class="st2" d="M485.6,41.6l-3.4-7.5h-15.5l-3.3,7.5h-4l14-31.3h2.2l14.1,31.3H485.6z M474.5,16l-2.9,6.7l-3.3,7.9h12.3  l-3.3-7.9L474.5,16z"></path>	<path class="st2" d="M497.2,41.6c-0.7,0-1.2,0-1.5,0v-3.4c0.3,0,0.8,0,1.5,0c2,0,3.4-0.9,4.2-2.7c0.8-1.8,1.2-4.6,1.2-8.5V10.5  h22.3v31h-3.7V14h-14.9v13.4c0,2.9-0.2,5.3-0.6,7.2c-0.4,1.9-1,3.4-1.9,4.4s-1.8,1.7-2.8,2.1C499.9,41.4,498.6,41.6,497.2,41.6z"></path></g></svg>