<svg xmlns="http://www.w3.org/2000/svg" xmlns:xlink="http://www.w3.org/1999/xlink" id="&#x421;&#x43B;&#x43E;&#x439;_1" x="0px" y="0px" viewBox="0 0 517.4 116.6" style="enable-background:new 0 0 517.4 116.6;" xml:space="preserve"><style type="text/css">	.st0{fill:#272E33;}</style><g>	<path class="st0" d="M35.9,60.4c6.4,1,11.7,3.3,15.9,7c4.2,3.6,6.3,8.5,6.3,14.5c0,8-3.1,14.2-9.3,18.4c-6.2,4.2-14.8,6.3-25.6,6.3  c-9.1,0-16.6-1.4-22.5-4.1c-6-2.7-11.1-6.7-15.3-12.1l3.7-3.3C-3.5,97.1,7.9,102,23.2,102c9.2,0,16.6-1.8,22-5.3  c5.4-3.5,8.1-8.5,8.1-14.9c0-5.6-2.4-10-7.2-13.3c-4.8-3.3-11.2-5-19.2-5H7.7v-4.4H22c7.4,0,13.6-1.8,18.6-5.3  c5-3.5,7.6-8.4,7.6-14.5c0-6.4-2.3-11.2-6.9-14.5c-4.6-3.3-10.8-5-18.7-5c-13.5,0-23.9,4.9-31.1,14.7l-3.8-3.2  c4.1-5.4,9-9.5,14.5-12.1c5.5-2.7,12.3-4,20.4-4c9.4,0,16.8,2.1,22.2,6.2c5.4,4.1,8.1,10,8.1,17.6c0,5.5-1.6,10.1-4.8,13.7  C45,56.3,40.9,58.8,35.9,60.4z"></path>	<path class="st0" d="M126.2,106.6c-10.3,0-18.6-3.2-24.8-9.7C95.1,90.5,92,82,92,71.3s3.2-19.1,9.6-25.3c6.4-6.2,14.5-9.3,24.4-9.3  c11.3,0,20,3.6,25.9,10.8v-9.9h4.4v68.1H152V95.5C145.7,102.9,137.1,106.6,126.2,106.6z M126.6,102.1c11,0,19.5-4.2,25.4-12.6V53.8  c-5.8-8.4-14.4-12.6-25.5-12.6c-8.6,0-15.7,2.7-21.3,8.1c-5.6,5.4-8.4,12.7-8.4,22c0,9.3,2.7,16.8,8.1,22.4  C110.3,99.3,117.5,102.1,126.6,102.1z"></path>	<path class="st0" d="M223.1,37.6h31.2v68.1h-4.4V81.4h-27.9h-0.5l-17,24.3h-5.6l17.4-24.6c-5.5-0.9-9.8-3.2-12.8-6.8  c-3-3.6-4.6-8.4-4.6-14.4c0-7.4,2.2-12.9,6.5-16.6C209.6,39.5,215.5,37.6,223.1,37.6z M249.9,77.1V41.9h-26.7  c-6.1,0-10.9,1.5-14.4,4.4c-3.5,3-5.3,7.5-5.3,13.5c0,5.6,1.7,9.9,5,12.8c3.3,3,7.9,4.4,13.7,4.4H249.9z"></path>	<path class="st0" d="M342.8,70.4c10,2.1,15,7.7,15,16.6c0,6.3-1.9,10.9-5.7,14c-3.8,3.1-9.8,4.6-17.9,4.6h-34.3V37.6h32.8  c6.8,0,11.9,1.5,15.5,4.4c3.6,2.9,5.3,7.1,5.3,12.5C353.5,63.1,349.9,68.4,342.8,70.4z M304.3,41.9v26.8h29  c10.3,0,15.5-4.7,15.5-14.1c0-8.5-5.4-12.7-16.1-12.7H304.3z M334.1,101.4c2.7,0,5.1-0.2,7-0.5c2-0.3,4-1,5.9-2  c1.9-1,3.4-2.5,4.4-4.5c1-2,1.5-4.6,1.5-7.6c0-9.2-6.8-13.8-20.3-13.8h-28.3v28.4H334.1z"></path>	<path class="st0" d="M454.1,105.7h-8l-44.5-30.4v30.4h-4.4V37.6h4.4v35.3l42.3-35.3h6.9l-43.3,36.2L454.1,105.7z"></path>	<path class="st0" d="M541.1,105.7l-8.4-19.1h-37.4l-8.3,19.1h-3.8l29.5-67.9h2.8l29.5,67.9H541.1z M514.1,42.8L497,83.2h34.3  l-8.7-20.6L514.1,42.8z"></path></g></svg>