<svg xmlns="http://www.w3.org/2000/svg" xmlns:xlink="http://www.w3.org/1999/xlink" id="&#x421;&#x43B;&#x43E;&#x439;_1" x="0px" y="0px" viewBox="0 0 143.6 179.2" style="enable-background:new 0 0 143.6 179.2;" xml:space="preserve"><style type="text/css">	.st0{fill:#C11C22;}	.st1{fill-rule:evenodd;clip-rule:evenodd;fill:#C11C22;}</style><path class="st0" d="M35.3,129h5.8c1.6,0,2.8-0.6,3.7-1.7c0.9-1.1,1.3-2.8,1.3-4.9c0-2.2-0.4-4-1.3-5.3c-0.9-1.3-2.1-2-3.6-2h-5.9 V129z"></path><path class="st0" d="M68.8,115v29.8h2.5c2.8,0,4.8-0.8,5.9-2.4c1.1-1.6,1.7-4.4,1.8-8.3v-7.8c0-4.2-0.5-7.1-1.6-8.8 c-1.1-1.7-2.9-2.5-5.6-2.6L68.8,115L68.8,115z"></path><path class="st1" d="M143,59.7l-0.1-0.3c-0.1-0.2-0.1-0.4-0.2-0.6c-0.4-1-1-1.9-1.8-2.6L87.1,2.4c-0.8-0.8-1.7-1.3-2.6-1.8 c-0.2-0.1-0.4-0.1-0.6-0.2c-0.1,0-0.2-0.1-0.3-0.1c-0.8-0.3-1.5-0.4-2.3-0.5c-0.1,0-0.2,0-0.3-0.1c-0.1,0-0.2-0.1-0.3-0.1H17.9 C8-0.3,0,7.8,0,17.7v143.6c0,9.9,8,17.9,17.9,17.9h107.7c9.9,0,17.9-8,17.9-17.9V62.6c0-0.1,0-0.2-0.1-0.3c0-0.1-0.1-0.2-0.1-0.3 C143.4,61.2,143.2,60.4,143,59.7z M80.8,17.7v44.9h44.9L80.8,17.7z M35.3,136.5v15.8h-8.4v-44.9h14.2c4.1,0,7.4,1.4,9.9,4.1 c2.5,2.8,3.7,6.3,3.7,10.7c0,4.4-1.2,7.9-3.6,10.4c-2.4,2.5-5.8,3.8-10.1,3.8h-5.7V136.5z M60.3,152.3v-44.9h11 c4.9,0,8.8,1.7,11.6,5c2.9,3.3,4.4,7.9,4.4,13.7v7.3c0,5.9-1.5,10.5-4.4,13.9c-2.9,3.3-6.9,5-12,5L60.3,152.3L60.3,152.3z M102,134 h13.1v-7.5H102V115h14.7v-7.5H93.5v44.9h8.4L102,134L102,134z"></path></svg>