<svg xmlns="http://www.w3.org/2000/svg" xmlns:xlink="http://www.w3.org/1999/xlink" id="&#x421;&#x43B;&#x43E;&#x439;_1" x="0px" y="0px" viewBox="0 0 22.2 26.2" style="enable-background:new 0 0 22.2 26.2;" xml:space="preserve"><style type="text/css">	.st0{fill:#C11C22;}</style><path class="st0" d="M18.9,3.3C14.6-1,7.6-1,3.3,3.3c0,0,0,0-0.1,0.1C-1,7.6-0.9,14.5,3.3,18.8l7.1,7c0.2,0.2,0.4,0.3,0.7,0.3 s0.5-0.1,0.7-0.3l7.1-7c0,0,0,0,0.1-0.1C23.2,14.4,23.2,7.5,18.9,3.3z M11.1,14.1c-1.7,0-3-1.3-3-3s1.3-3,3-3s3,1.3,3,3 C14.1,12.7,12.8,14.1,11.1,14.1z"></path></svg>