<svg xmlns="http://www.w3.org/2000/svg" xmlns:xlink="http://www.w3.org/1999/xlink" id="&#x421;&#x43B;&#x43E;&#x439;_1" x="0px" y="0px" viewBox="0 0 517.4 116.6" style="enable-background:new 0 0 517.4 116.6;" xml:space="preserve"><style type="text/css">	.st0{display:none;}	.st1{display:inline;fill:#272E33;}	.st2{fill:#272E33;}</style><g class="st0">	<path class="st1" d="M53.4,1.1h5.3L25.1,68.3c-2.2,4.4-4,7.8-5.5,10.1c-1.4,2.3-3.2,4.7-5.3,7s-4.4,3.9-6.9,4.8S2,91.5-1.4,91.5  c-1.9,0-4.6-0.3-8.1-1v-4.7c2.9,0.8,5.5,1.1,8,1.1c4.7,0,8.5-1.2,11.3-3.6C12.5,81,15.6,76.5,19,70L-17.6,1.1h5.3l33.8,63.6  l6.1-11.9L53.4,1.1z"></path>	<path class="st1" d="M120.6,91.6c-10.8,0-19.4-3.2-26-9.6s-9.9-14.8-9.9-25.3c0-10.4,3.4-18.8,10.3-25.3c6.9-6.4,15.6-9.7,26.3-9.7  c5.1,0,9.9,1,14.5,3.1s8.4,4.8,11.4,8.3l-3.3,3.2c-2.5-3-5.9-5.5-10-7.4s-8.3-2.8-12.6-2.8c-9.3,0-17,2.8-22.9,8.4  c-6,5.6-9,13-9,22c0,9.1,2.9,16.5,8.6,22s13.3,8.3,22.7,8.3c4.7,0,9.2-0.9,13.5-2.8c4.4-1.9,7.9-4.4,10.6-7.6l3.2,3.2  c-3,3.6-6.9,6.5-11.9,8.6C131.1,90.5,126,91.6,120.6,91.6z"></path>	<path class="st1" d="M182.1,90.8c-1,0-1.8,0-2.4-0.1v-4.3h2.3c3.5,0,6.3-0.7,8.6-2.1c2.2-1.4,3.9-3.5,5-6.2  c1.1-2.8,1.8-5.6,2.2-8.5s0.6-6.5,0.6-10.7V22.6h48.5v68.1h-4.4V26.9h-39.6v32.5c0,10.6-1.5,18.5-4.5,23.6  C195.3,88.2,189.9,90.8,182.1,90.8z"></path>	<path class="st1" d="M345,22.6h5l-30.5,71.2c-3.2,7.6-6.8,12.9-10.9,15.7c-4,2.9-8.6,4.3-13.8,4.3c-2.6,0-5.8-0.5-9.4-1.5v-4.7  c3.6,1.2,6.8,1.8,9.7,1.8c4.7,0,8.5-1.4,11.5-4.1s5.8-7,8.4-13l0.3-0.4l-33-69.5h5.2l30.2,64.1L345,22.6z"></path>	<path class="st1" d="M431.4,22.5v4.4h-41.1v63.8h-4.4V22.6h2.8v-0.1H431.4z"></path>	<path class="st1" d="M525,22.4h3.3v68.3h-4.4V30.5L472.2,91h-3.4V22.6h4.4v60.8L525,22.4z"></path></g><g>	<path class="st2" d="M-7.4,39.6V1.5h30.2v38.1h-3.1V4.4h-24v35.2H-7.4z"></path>	<path class="st2" d="M42.7,49V10.5h2.9v3.8c2.6-2.8,6.1-4.3,10.7-4.3c4.2,0,7.7,1.3,10.4,4c2.7,2.7,4,6.3,4,10.9  c0,4.6-1.3,8.3-4,11S60.6,40,56.2,40c-4.5,0-8.1-1.5-10.6-4.4V49H42.7z M56,37.1c3.5,0,6.4-1.1,8.5-3.3c2.1-2.2,3.2-5.2,3.2-8.9  c0-3.7-1.1-6.6-3.3-8.8c-2.2-2.2-5-3.2-8.4-3.2c-2,0-4,0.4-5.8,1.3c-1.9,0.9-3.4,2.1-4.6,3.8v13.9c1.1,1.7,2.6,3,4.5,3.9  C52,36.7,53.9,37.1,56,37.1z"></path>	<path class="st2" d="M115.9,25.1v0.9H89.7c0.3,3.5,1.5,6.2,3.8,8.2c2.3,2,5.1,3,8.4,3c4.6,0,8.1-1.5,10.6-4.6l2.2,1.8  c-2.9,3.8-7.3,5.7-13,5.7c-4.5,0-8.1-1.4-10.9-4.2c-2.8-2.8-4.2-6.4-4.2-10.9c0-4.4,1.4-8,4.1-10.7c2.8-2.8,6.3-4.2,10.5-4.2  c4.5,0,8.1,1.4,10.7,4.2C114.6,16.9,115.9,20.6,115.9,25.1z M101.3,12.8c-3.1,0-5.7,1-7.8,2.9s-3.4,4.5-3.7,7.6h23  c-0.2-3.1-1.3-5.7-3.4-7.6C107.4,13.8,104.7,12.8,101.3,12.8z"></path>	<path class="st2" d="M157.6,10.2h1.7v29.3h-2.9V15.7l-21.3,24.1h-1.8V10.5h2.8v24L157.6,10.2z"></path>	<path class="st2" d="M208.9,10.2h1.7v29.3h-2.9V16.7l-12.3,17.5h-1.4l-12.3-17.5v23h-2.9V10.2h1.7l14.1,20.2L208.9,10.2z"></path>	<path class="st2" d="M252.1,10.5h3.2l-12.8,30.3c-0.8,1.8-1.6,3.4-2.5,4.6c-0.9,1.2-1.9,2.1-2.9,2.7c-1,0.6-1.9,1-2.8,1.2  c-0.9,0.2-1.9,0.3-2.9,0.3c-1.2,0-2.6-0.2-4.2-0.6v-2.9c1.5,0.5,3,0.7,4.3,0.7c1.9,0,3.5-0.5,4.7-1.5c1.2-1,2.3-2.6,3.3-4.9  l-13.7-29.9h3.3l12,26.4L252.1,10.5z"></path>	<path class="st2" d="M311.4,36.7h4.2v10.7h-2.8v-7.9H271V10.5h2.9v26.2h15.8V10.5h2.9v26.2h15.9V10.5h2.9V36.7z"></path>	<path class="st2" d="M359.4,25.1v0.9h-26.2c0.3,3.5,1.5,6.2,3.8,8.2c2.3,2,5.1,3,8.4,3c4.6,0,8.1-1.5,10.6-4.6l2.2,1.8  c-2.9,3.8-7.3,5.7-13,5.7c-4.5,0-8.1-1.4-10.9-4.2s-4.2-6.4-4.2-10.9c0-4.4,1.4-8,4.1-10.7c2.8-2.8,6.3-4.2,10.5-4.2  c4.5,0,8.1,1.4,10.7,4.2C358,16.9,359.4,20.6,359.4,25.1z M344.8,12.8c-3.1,0-5.7,1-7.8,2.9c-2.2,1.9-3.4,4.5-3.7,7.6h23  c-0.2-3.1-1.3-5.7-3.4-7.6C350.8,13.8,348.1,12.8,344.8,12.8z"></path>	<path class="st2" d="M390.1,40c-4.7,0-8.4-1.4-11.2-4.1c-2.8-2.7-4.2-6.4-4.2-10.9c0-4.5,1.4-8.1,4.3-10.9  c2.9-2.7,6.7-4.1,11.3-4.1c2.3,0,4.5,0.5,6.5,1.4c2.1,0.9,3.7,2.2,5,3.7l-2.1,2.1c-1-1.3-2.4-2.3-4.1-3.1s-3.5-1.2-5.3-1.2  c-3.7,0-6.7,1.1-9,3.3c-2.3,2.2-3.5,5.1-3.5,8.8c0,3.7,1.1,6.6,3.4,8.8c2.2,2.2,5.2,3.3,8.9,3.3c2,0,3.9-0.4,5.7-1.2  c1.8-0.8,3.2-1.9,4.3-3.2l2.1,2.1c-1.3,1.6-3,2.8-5.2,3.8C394.8,39.5,392.5,40,390.1,40z"></path>	<path class="st2" d="M439.8,10.5v2.8h-10.3v26.3h-2.9V13.3h-10.3v-2.8H439.8z"></path>	<path class="st2" d="M475.4,24.4c4.2,0.9,6.3,3.2,6.3,7.1c0,2.7-0.8,4.7-2.4,6c-1.6,1.3-4.2,2-7.9,2h-15.2V10.5h14.2  c6.2,0,9.3,2.4,9.3,7.3C479.7,21.3,478.3,23.5,475.4,24.4z M459.1,13.3v10.2h11.2c2.1,0,3.6-0.4,4.7-1.2c1.1-0.8,1.6-2.2,1.6-4.3  c0-3.1-2.1-4.6-6.3-4.6H459.1z M471.4,36.7c2.3,0,4.1-0.4,5.3-1.2c1.2-0.8,1.8-2.2,1.8-4.2c0-1.7-0.6-3-1.8-3.9  c-1.2-0.9-3.2-1.4-6.1-1.4h-11.6v10.7H471.4z"></path>	<path class="st2" d="M511.4,40c-4.4,0-8-1.4-10.6-4.1c-2.6-2.7-4-6.4-4-11c0-4.6,1.3-8.2,4-10.9c2.7-2.7,6.2-4,10.4-4  c4.6,0,8.2,1.4,10.7,4.3v-3.8h2.9v29.1h-2.9v-3.9C519.4,38.5,515.9,40,511.4,40z M511.6,37.1c2.1,0,4-0.4,5.9-1.3  c1.9-0.9,3.3-2.2,4.5-3.9V18c-1.2-1.7-2.7-3-4.6-3.8c-1.9-0.9-3.8-1.3-5.8-1.3c-3.4,0-6.2,1.1-8.4,3.2c-2.2,2.1-3.3,5.1-3.3,8.8  c0,3.7,1.1,6.7,3.2,8.9C505.2,36,508.1,37.1,511.6,37.1z"></path></g></svg>