<svg xmlns="http://www.w3.org/2000/svg" xmlns:xlink="http://www.w3.org/1999/xlink" id="&#x421;&#x43B;&#x43E;&#x439;_1" x="0px" y="0px" viewBox="0 0 46.7 895" style="enable-background:new 0 0 46.7 895;" xml:space="preserve"><style type="text/css">	.st0{display:none;}	.st1{display:inline;}	.st2{fill:#FFFFFF;}</style><g class="st0">	<path class="st1" d="M2.6,461.8v-2.5l31.7,15.9c2.1,1,3.7,1.9,4.8,2.6s2.2,1.5,3.3,2.5s1.9,2.1,2.3,3.3c0.4,1.2,0.6,2.6,0.6,4.2  c0,0.9-0.2,2.2-0.5,3.8h-2.2c0.4-1.4,0.5-2.6,0.5-3.8c0-2.2-0.6-4-1.7-5.3c-1.1-1.3-3.2-2.8-6.3-4.4L2.6,495.4v-2.5l30.1-16L27,474  L2.6,461.8z"></path>	<path class="st1" d="M45.3,414.6c0,6.4-2,11.6-5.9,15.4c-4,3.8-9.3,5.7-16,5.7c-6.6,0-11.8-1.9-15.6-5.7c-3.8-3.8-5.6-8.9-5.6-15.4  c0-7.3,2.7-13.1,8-17.5l1.5,1.7c-4.9,3.9-7.3,9.2-7.3,15.7c0,5.8,1.7,10.3,5.1,13.7c3.4,3.4,8.1,5.1,14,5.1c6,0,10.8-1.7,14.4-5.1  s5.4-8,5.4-13.7c0-6.6-2.4-11.8-7.3-15.8l1.5-1.7C42.7,401.4,45.3,407.3,45.3,414.6z"></path>	<path class="st1" d="M45,370.3c0,0.6,0,1-0.1,1.2h-2.1v-1.1c0-3.7-1.4-6.2-4.1-7.6c-2.8-1.4-7.2-2.1-13.2-2.1H2.6v-28.6h42.3v2.3  H4.7v24.1h21.1c7.1,0,12.1,0.9,14.9,2.8C43.6,363,45,366.1,45,370.3z"></path>	<path class="st1" d="M2.6,269.8v-2.5l31.7,15.9c2.1,1,3.7,1.9,4.8,2.6c1.1,0.7,2.2,1.5,3.3,2.5s1.9,2.1,2.3,3.3  c0.4,1.2,0.6,2.6,0.6,4.2c0,0.9-0.2,2.2-0.5,3.8h-2.2c0.4-1.4,0.5-2.6,0.5-3.8c0-2.2-0.6-4-1.7-5.3c-1.1-1.3-3.2-2.8-6.3-4.4  L2.6,303.3v-2.5l30.1-16l-5.6-2.9L2.6,269.8z"></path>	<path class="st1" d="M44.9,237.7H2.6V211h2.1v24.4h40.2V237.7z"></path>	<path class="st1" d="M2.5,149.6V148h42.4v2.2H6.7L45,180.6v1.6H2.6v-2.3h38.2L2.5,149.6z"></path></g><rect x="24" y="573.8" class="st2" width="1.5" height="314.6"></rect><g>	<path class="st2" d="M37.2,496.7H2v-28h35.2v2.9H4.7v22.2h32.5V496.7z"></path>	<path class="st2" d="M46,450.3H10.3v-2.7h3.5c-2.6-2.4-3.9-5.7-3.9-10c0-3.9,1.2-7.1,3.7-9.6c2.5-2.5,5.8-3.7,10.1-3.7  c4.3,0,7.7,1.2,10.2,3.7c2.5,2.4,3.8,5.7,3.8,9.8c0,4.2-1.4,7.5-4.1,9.8H46V450.3z M35,438c0-3.3-1-5.9-3-7.9c-2-2-4.8-3-8.3-3  c-3.4,0-6.2,1-8.2,3c-2,2-3,4.6-3,7.8c0,1.9,0.4,3.7,1.2,5.4c0.8,1.7,2,3.1,3.5,4.3h12.9c1.6-1,2.8-2.4,3.6-4.2  C34.6,441.7,35,439.9,35,438z"></path>	<path class="st2" d="M23.8,382.5h0.8v24.3c3.2-0.2,5.7-1.4,7.6-3.5c1.9-2.1,2.8-4.7,2.8-7.8c0-4.2-1.4-7.5-4.3-9.9l1.7-2  c3.5,2.7,5.3,6.7,5.3,12c0,4.2-1.3,7.5-3.8,10.1c-2.6,2.6-5.9,3.9-10.1,3.9c-4.1,0-7.4-1.3-10-3.8c-2.6-2.6-3.8-5.8-3.8-9.7  c0-4.2,1.3-7.5,3.8-9.9C16.3,383.7,19.7,382.5,23.8,382.5z M12.5,396c0,2.8,0.9,5.3,2.7,7.3c1.8,2,4.1,3.2,7,3.5v-21.3  c-2.9,0.2-5.2,1.2-7,3.1C13.4,390.4,12.5,392.9,12.5,396z"></path>	<path class="st2" d="M10.1,344v-1.6h27.1v2.7h-22l22.3,19.8v1.7H10.3v-2.6h22.2L10.1,344z"></path>	<path class="st2" d="M10.1,296.5v-1.6h27.1v2.6H16l16.2,11.4v1.3L16,321.5h21.2v2.6H10.1v-1.6l18.7-13L10.1,296.5z"></path>	<path class="st2" d="M10.3,256.4v-2.9l28.1,11.8c1.7,0.7,3.1,1.5,4.3,2.3s2,1.7,2.5,2.6c0.5,0.9,0.9,1.8,1.1,2.6  c0.2,0.8,0.3,1.7,0.3,2.7c0,1.1-0.2,2.4-0.6,3.9h-2.7c0.4-1.4,0.7-2.8,0.7-4c0-1.8-0.5-3.2-1.4-4.4c-0.9-1.1-2.5-2.2-4.6-3.1  l-27.6,12.7v-3l24.5-11.1L10.3,256.4z"></path>	<path class="st2" d="M34.6,201.5v-3.9h9.9v2.6h-7.3V239H10.3v-2.7h24.3v-14.7H10.3v-2.7h24.3v-14.7H10.3v-2.7H34.6z"></path>	<path class="st2" d="M23.8,157.1h0.8v24.3c3.2-0.2,5.7-1.4,7.6-3.5c1.9-2.1,2.8-4.7,2.8-7.8c0-4.2-1.4-7.5-4.3-9.8l1.7-2.1  c3.5,2.7,5.3,6.7,5.3,12.1c0,4.2-1.3,7.5-3.8,10.1s-5.9,3.9-10.1,3.9c-4.1,0-7.4-1.3-10-3.8c-2.6-2.5-3.8-5.8-3.8-9.7  c0-4.2,1.3-7.5,3.8-9.9C16.3,158.3,19.7,157.1,23.8,157.1z M12.5,170.6c0,2.8,0.9,5.3,2.7,7.3c1.8,2,4.1,3.2,7,3.5V160  c-2.9,0.2-5.2,1.2-7,3.1C13.4,165,12.5,167.5,12.5,170.6z"></path>	<path class="st2" d="M37.6,128.6c0,4.3-1.3,7.8-3.8,10.3c-2.5,2.6-5.9,3.9-10.1,3.9c-4.2,0-7.5-1.3-10-4c-2.5-2.7-3.8-6.2-3.8-10.4  c0-2.1,0.4-4.2,1.3-6c0.9-1.9,2-3.4,3.4-4.6l1.9,2c-1.2,1-2.2,2.2-2.9,3.8c-0.7,1.6-1.1,3.2-1.1,4.9c0,3.4,1,6.2,3.1,8.4  c2,2.1,4.8,3.2,8.1,3.2c3.4,0,6.1-1,8.2-3.1c2-2.1,3.1-4.8,3.1-8.2c0-1.9-0.4-3.6-1.1-5.3c-0.7-1.6-1.7-3-2.9-4l1.9-2  c1.5,1.2,2.6,2.8,3.5,4.8C37.2,124.3,37.6,126.4,37.6,128.6z"></path>	<path class="st2" d="M10.3,82.6h2.6v9.5h24.3v2.7H12.9v9.5h-2.6V82.6z"></path>	<path class="st2" d="M23.2,49.7c0.8-3.9,3-5.8,6.6-5.8c2.5,0,4.3,0.7,5.6,2.2c1.2,1.5,1.8,3.9,1.8,7.3v14.1H10.3V54.3  c0-5.8,2.3-8.7,6.8-8.7C20.4,45.7,22.4,47,23.2,49.7z M12.9,64.8h9.4V54.4c0-1.9-0.4-3.4-1.1-4.4c-0.8-1-2.1-1.5-4-1.5  c-2.9,0-4.3,1.9-4.3,5.8V64.8z M34.6,53.4c0-2.1-0.4-3.8-1.1-4.9s-2-1.7-3.9-1.7c-1.6,0-2.8,0.5-3.6,1.6s-1.3,3-1.3,5.6v10.7h9.9  V53.4z"></path>	<path class="st2" d="M37.6,16.4c0,4.1-1.3,7.4-3.8,9.8c-2.5,2.5-5.9,3.7-10.2,3.7c-4.2,0-7.6-1.2-10.1-3.7  c-2.5-2.5-3.7-5.7-3.7-9.7c0-4.3,1.3-7.6,3.9-9.9h-3.5V3.9h26.9v2.7h-3.7C36.3,8.9,37.6,12.2,37.6,16.4z M35,16.1  c0-1.9-0.4-3.7-1.2-5.4c-0.8-1.7-2-3.1-3.6-4.1H17.3c-1.6,1.1-2.8,2.5-3.5,4.2c-0.8,1.7-1.2,3.5-1.2,5.4c0,3.2,1,5.8,3,7.8  s4.7,3,8.1,3c3.5,0,6.2-1,8.3-3C34,22.1,35,19.4,35,16.1z"></path></g></svg>