<svg xmlns="http://www.w3.org/2000/svg" xmlns:xlink="http://www.w3.org/1999/xlink" id="Layer_1" x="0px" y="0px" viewBox="0 0 512 512" style="enable-background:new 0 0 512 512;" xml:space="preserve"><style type="text/css">	.st0{fill:#FFFFFF;stroke:#000000;stroke-miterlimit:10;}	.st1{fill:url(#SVGID_1_);}	.st2{fill:url(#SVGID_2_);}</style><circle class="st0" cx="256" cy="256" r="227.5"></circle><linearGradient id="SVGID_1_" gradientUnits="userSpaceOnUse" x1="13.7633" y1="16.4357" x2="500.2583" y2="502.9307" gradientTransform="matrix(1 0 0 -1 0 514)">	<stop offset="0" style="stop-color:#209142"></stop>	<stop offset="1" style="stop-color:#56D263"></stop></linearGradient><path class="st1" d="M263,127.9c-66.5,0-120.4,53.9-120.4,120.4c0,24.1,7.2,47.6,20.7,67.6l-11.8,45.4l47.3-11 c56.3,35.4,130.6,18.5,166.1-37.8s18.5-130.6-37.8-166.1C307.9,134.3,285.7,127.9,263,127.9z M322.2,314.1 c-16.8,7.9-52,3.8-89.1-27.9s-46.6-65.8-41.4-83.7s25.6-21.2,29.5-20.3s23.1,31.4,20.5,35s-15.3,16.3-15.3,16.3s-0.5,13,23.3,33.4 s36.6,17.9,36.6,17.9s10.6-14.5,13.7-17.6s36.3,11.2,37.7,14.9S339.1,306.2,322.2,314.1L322.2,314.1z"></path><linearGradient id="SVGID_2_" gradientUnits="userSpaceOnUse" x1="14.1" y1="16.1" x2="500.595" y2="502.595" gradientTransform="matrix(1 0 0 -1 0 514)">	<stop offset="0" style="stop-color:#209142"></stop>	<stop offset="1" style="stop-color:#56D263"></stop></linearGradient><path class="st2" d="M256,0C114.6,0,0,114.6,0,256s114.6,256,256,256s256-114.6,256-256S397.4,0,256,0z M263,394 c-24,0-47.7-5.9-68.9-17.3L116.7,396l19.6-75.8c-39.7-70-15.2-158.9,54.8-198.6s158.9-15.2,198.6,54.8s15.2,158.9-54.8,198.6 C313,387.4,288.2,393.9,263,394z"></path></svg>