<?xml version="1.0" encoding="utf-8"?>
<!-- Generator: Adobe Illustrator 28.0.0, SVG Export Plug-In . SVG Version: 6.00 Build 0)  -->
<svg version="1.1" id="Layer_1" xmlns="http://www.w3.org/2000/svg" xmlns:xlink="http://www.w3.org/1999/xlink" x="0px" y="0px"
	 viewBox="0 0 480 165.28" style="enable-background:new 0 0 480 165.28;" xml:space="preserve">
<style type="text/css">
	.st0{fill:#FFF;}
</style>
<g>
	<path class="st0" d="M232.05,98.31c0.94,0.07,1.48,0.1,1.62,0.1c6.2-6.59,11.52-12.24,15.97-16.96
		c6.16-6.53,12.87-13.38,16.66-21.51c1.94-4.16,2.92-8.84,2-13.31c-1.46-7.07-7.63-12.05-14.85-11.14c-0.09,0.01-1.41,0.25-1.3,0.35
		c1.17,1.12,2.32,2.23,3.36,3.47c0.81,1.04,1.58,2.36,2.32,3.97c0.74,1.62,1.11,3.33,1.11,5.14c0,8.36-4.53,17.37-9.01,24.35
		c-3.92,6.09-9.05,11.19-13.93,16.54c-1.42,1.55-2.46,2.71-3.13,3.49c-0.4,0-0.61-0.51-0.61-1.55c0-1.29,0.71-3.23,2.12-5.81
		c1.42-2.58,3-5.26,4.75-8.04c1.75-2.78,3.4-5.33,4.95-7.65c0.95-1.43,2.59-3.34,2.94-5.06c0.43-2.1-1.14-4.59-2.52-6.08
		c-0.82-0.88-5.17-5-6.9-5c-0.11,0-0.2,0.02-0.29,0.05c-1.25,0.48-0.72,3.55-0.86,4.52c-0.84,5.73-4.29,11.56-7.52,16.34
		c-1.13,1.67-14.76,18.29-15.61,18.29c-0.01,0-0.02,0-0.03-0.01c-1.07-1.01-0.59-2.73,0.01-4.04c3.16-6.98,7.57-13.33,11.84-19.7
		c1.37-2.04,2.44-4.46,1.98-6.84c-0.31-1.6-6.2-8.85-8.92-8.85c-0.48,0-0.86,0.22-1.09,0.74c-0.42,0.94-0.12,2.67-0.36,3.75
		c-0.29,1.36-0.75,2.69-1.25,3.99c-2.25,5.85-5.28,11.36-7.4,17.27c-0.44,1.23-0.93,2.51-1.38,3.82c-0.23,0.09-0.46,0.19-0.65,0.31
		c-2.96,1.83-13.68,12.57-19.69,12.57c-1.87,0-3.27-1.04-3.85-3.7c-0.64-2.94,0.32-6.1,1.45-8.81c0.68,0.22,1.41,0.31,2.17,0.31
		c3.46,0,7.54-1.99,10.1-3.51c3.68-2.18,6.79-5.23,8.96-8.82c1.48-2.45,2.22-5.1,2.22-7.95c0-0.51-0.3-1.19-0.91-2.03
		c-0.61-0.84-1.41-1.65-2.43-2.42c-2.27-1.74-4.8-2.86-7.7-2.49c-6.82,0.87-12.08,6.21-16.35,11.19c-3.8,4.44-6.79,9.16-8.25,14.59
		c-4.59,3.89-8.1,9.07-13.55,11.74c0.65-3.87,2.25-7.53,3.95-11.1c2.98-6.25,6.31-12.34,9.64-18.43c3.94-7.2,7.48-13.64,11.42-20.85
		c0.77-1.41,1.45-1.54,3.01-1.54c0.11,0,0.22,0,0.34,0c0.38,0,0.76,0,1.13,0c5.93,0,10.64-0.45,15.07-3.15
		c0.86-0.52,1.75-1.55,1.17-2.35c-0.33-0.45-0.95-0.55-1.54-0.55c-0.12,0-0.23,0-0.35,0.01c-5.09,0.23-10.18,0.46-15.27,0.69
		c0.02-0.02,0.03-0.05,0.05-0.07c1.24-1.9,0.98-4.44-0.11-6.42c-1.1-2.01-2.91-3.57-4.73-5.03c-0.62-0.5-1.38-1.01-2.15-1.01
		c-0.17,0-0.35,0.03-0.52,0.08c-0.83,0.28-1.2,1.18-1.48,1.99c-0.61,1.77-1.23,3.55-1.84,5.32c-0.18,0.51-1.37,4.58-1.75,4.58
		c-11.31-0.49-18.59-0.93-26.46-0.93c-5.84,0-12,0.25-20.38,0.9c-2.35,0.18-4.74,0.42-6.9,1.31c-2.77,1.15-4.82,3.77-5.32,6.63
		c-0.23,1.33,0.1,2.78,0.89,3.89c0.77-3,2.36-4.11,4.59-5.04c2.23-0.92,4.7-1.1,7.12-1.23c8.23-0.47,13.91-0.64,19.21-0.64
		c7.17,0,13.63,0.31,24.8,0.63c-5.8,12.7-13.35,24.61-19.12,37.32c-0.83,1.82-1.61,3.67-2.24,5.56c-1.59,1.35-3.2,3.05-3.54,3.37
		c-2.47,2.36-4.98,4.67-7.53,6.96c-0.38,0.34-0.9,0.7-1.38,0.7c-0.16,0-0.32-0.04-0.46-0.14c-0.56-0.37-0.41-1.19-0.19-1.8
		c2.66-7.35,5.98-14.49,9.92-21.29c1.2-2.08,2.49-4.2,2.81-6.56c0.6-4.49-3.68-7.41-7.42-9.19c-0.16-0.08-0.35-0.15-0.53-0.15
		c-0.08,0-0.17,0.02-0.24,0.06c-0.19,0.1-0.26,0.32-0.32,0.52c-0.43,1.44-0.86,2.89-1.29,4.33c-0.14,0.47-0.35,1.01-0.84,1.17
		c-0.09,0.03-0.17,0.04-0.26,0.04c-0.32,0-0.63-0.15-0.91-0.31c-4.04-2.31-6.85-5.17-10.54-5.17c-1.57,0-3.3,0.52-5.35,1.81
		c-4.5,2.84-7.67,7.48-10.82,11.46c-1.03,1.31-2.13,2.7-3.18,4.17c-3.61,5.03-6.78,10.9-5.61,16.8c-4.61,0.47-9.24,1.19-13.46,2.13
		c5.26-9.26,10.76-19.15,15.81-28.51c3.01-5.58,6.16-5.1,3.91-7.03c-2.32-1.99-5.53-3.01-8.57-2.56c-3.36,0.49-6.12,2.99-8.36,5.39
		c-8.63,9.26-18.48,17.35-28.64,24.94c-0.13,0.1-0.26,0.2-0.4,0.3c-5.08,3.78-10.16,7.74-15.5,11.17c-1.98,1.27-4.61,2.71-7.28,3.36
		c-0.91,0.22-1.83,0.36-2.73,0.36c-1.57,0-3.07-0.4-4.39-1.39c-1.98-1.5-2.87-4.06-2.9-6.5c-0.08-6.34,2.89-13.68,5.81-19.25
		c0.82-1.56,1.72-3.07,2.68-4.55c2.54-3.92,5.53-7.55,8.85-10.87c6.05-6.06,13.09-11.11,20.58-15.38c3.85-2.19,7.8-4.2,11.83-6
		c5.21-2.34,18.64-6.83,23.91-8.27c-0.09,0.41-0.43,1.39-0.5,1.6c-0.23,0.67-0.5,1.32-0.82,1.96c-1.87,3.81-5.13,6.67-8.38,9.35
		c-1.13,0.93-2.27,1.85-3.37,2.81c-0.73,0.64-1.31,1.69-0.18,1.69c0.09,0,0.18-0.01,0.29-0.02c2.12-0.25,4.22-1.69,6.07-2.63
		c4.21-2.14,8.21-4.49,12.27-6.88c5.09-3.24,10.51-7.52,10.02-14.11c-0.09-1.22-0.37-2.41-0.81-3.51c-1.26-3.1-3.89-5.45-7.58-5.45
		c-3.53,0-9.02,1.13-16.45,3.39c-6.38,1.94-12.78,4.38-19.05,7.26C63.31,29.6,51.72,36.91,41.99,45.73
		c-2.97,2.69-5.78,5.51-8.36,8.47c-11.4,13.07-24.21,37.95-11.58,53.96c3.15,4,6.59,5.52,10.1,5.52c3.35,0,6.76-1.38,10.06-3.31
		c4.24-2.48,8.29-5.87,11.78-8.4c3.48-2.53,6.93-5.1,10.37-7.69c2.1-1.58,4.2-3.17,6.28-4.78c2.52-1.95,5.9-4.48,8.42-6.44
		c2.29-1.79,4.64-3.57,6.19-4.47c-0.93,3.1-4.32,9.47-6.56,13.44c-0.65,1.15-1.33,2.31-2.31,3.21c-1.39,1.26-3.25,1.87-5.02,2.51
		c-2.05,0.74-4.05,1.58-6.03,2.48c-8.09,3.66-15.55,8.61-22.02,14.6c-1.81,1.67-3.57,3.4-5.21,5.23
		c-5.76,6.41-10.62,14.21-10.78,22.75c-0.07,3.92,1.23,8.6,5.02,10.56c1.27,0.66,2.61,0.95,3.98,0.95c6.46,0,13.55-6.41,17.43-10.23
		c0.15-0.14,0.28-0.3,0.42-0.45c6.63-6.63,12.04-14.24,17.2-22.07c3.63-5.51,7.15-11.12,10.88-16.55c1.21-1.77,2.48-3.55,4.17-4.88
		c2.4-1.9,5.47-2.76,8.48-3.43c3.1-0.69,6.25-1.2,9.41-1.55c1.48,2.38,3.71,3.4,6.1,3.4c2.23,0,4.61-0.88,6.68-2.37
		c2.45-1.76,4.64-4.05,6.74-6.17c2.3-2.32,4.42-4.79,6.74-7.09c-1.27,3.25-1.92,6.72-1.92,10.19c0,1.85,0.24,3.82,1.47,5.24
		c3.31,3.83,8.86,1.15,12.09-1.24c2.56-1.89,4.89-4.07,6.99-6.43c-0.01,0.16-0.03,0.31-0.04,0.47c-0.08,1.8,0.15,3.72,1.29,5.15
		c1.16,1.44,3.08,2.11,5.01,2.11c0.59,0,1.18-0.06,1.75-0.19c2.42-0.52,4.52-1.95,6.43-3.46c2.63-2.07,5.04-4.37,7.24-6.85
		c-0.05,1.32,0.01,2.63,0.32,3.9c1.4,5.81,7.24,8.1,13.14,8.1c3.65,0,7.32-0.87,9.99-2.32c4.14-2.25,7.83-5.65,11-9.25
		c-0.09,0.64-0.15,1.28-0.15,1.91c0,2.07,0.44,3.65,1.31,4.75c0.88,1.1,1.82,1.91,2.83,2.42c1.01,0.52,1.99,0.81,2.93,0.87
		c0.94,0.07,1.48,0.1,1.62,0.1c2.83-2.97,5.12-5.39,6.87-7.27c1.73-1.85,3.26-3.48,4.6-4.89c-0.17,0.62-0.45,2.04-0.52,2.86
		c-0.11,1.37-0.04,2.77,0.39,4.08c0.61,1.88,2.04,3.4,3.81,4.25C230.09,97.96,231.1,98.25,232.05,98.31z M192.25,71.08
		c1.89-1.81,3.57-3.16,5.05-4.07c1.62-1.03,3.17-1.68,4.65-1.94c0.94,0,1.42,0.32,1.42,0.97c0,0.52-0.3,1.26-0.91,2.23
		c-0.61,0.97-1.65,2.3-3.13,3.97c-2.83,2.71-5.22,4.49-7.18,5.33c-1.96,0.84-3.67,1.26-5.16,1.26h-0.81
		C188.34,75.48,190.36,72.89,192.25,71.08z M67.89,111.13c-5.56,7.69-11.7,15.51-18.52,21.94c-1.43,1.35-2.9,2.65-4.39,3.86
		c-0.94,0.76-2.03,1.42-3.24,1.5c-0.08,0-0.15,0.01-0.22,0.01c-1.65,0-2.72-1.24-2.98-2.78c-0.58-3.55,2.65-7.71,3.72-9.55
		c0.77-1.32,1.86-2.75,3.09-4.17c2.21-2.55,4.89-5.07,7.05-6.81c4.58-3.7,9.17-6.5,14.2-8.91c2.19-1.05,4.45-2.02,6.85-2.96
		C71.66,105.83,69.81,108.47,67.89,111.13z M128.21,77.06c-1.89,2.22-3.82,4.41-5.79,6.57c-1.72,1.87-3.24,3.89-5.32,5.42
		c-0.29,0.21-0.59,0.37-0.87,0.47c-0.21,0.07-0.41,0.11-0.6,0.11c-0.59,0-1-0.4-0.93-1.35c0.08-0.94,0.42-1.87,0.78-2.74
		c0.85-2.06,2.08-3.95,3.29-5.83c1.69-2.62,3.54-5.15,5.47-7.62c2.32-2.97,5.49-6.64,9.74-6.64c0.94,0,2.09,0.32,3.44,0.97
		c-0.01,0-0.02-0.01-0.03-0.01C136.66,66.43,129.08,76.03,128.21,77.06z"/>
	<path class="st0" d="M439.58,54.96v0.29c0,1.98-0.2,3.83-0.56,5.53c7.61-14.46,17.16-32.64,23.5-44.85h-0.15
		C460.92,18.4,449.56,37.86,439.58,54.96z"/>
	<path class="st0" d="M262.7,134.17v-4.89c0-3.5-0.96-5.67-3-6.76c1.99-1.16,2.95-3.26,2.95-6.42v-2.49c0-5.19-2.45-7.61-7.7-7.61
		h-7.84v32.35h5.62v-12.91h1.4c1.82,0,2.94,0.62,2.94,3.71v4.98c0,2.59,0.18,3.13,0.47,4l0.07,0.22h5.79l-0.19-0.44
		C262.73,136.75,262.7,135.63,262.7,134.17z M257.03,117.23c0,2.15-0.77,3.03-2.67,3.03h-1.63v-9.1h2.08c1.57,0,2.22,0.85,2.22,2.94
		V117.23z"/>
	<path class="st0" d="M274.45,120.25L274.45,120.25c-3.1-2.71-4.15-4.39-4.15-6.64c0-2.49,1.16-2.81,2.17-2.81
		c1.01,0,2.17,0.32,2.17,2.81v1.63H280v-1.32c0-5.35-2.72-8.29-7.66-8.29c-4.94,0-7.66,2.94-7.66,8.29c0,3.87,1.46,6.53,5.59,10.16
		c3.1,2.71,4.15,4.39,4.15,6.64c0,1.91-0.7,2.76-2.26,2.76c-1.56,0-2.26-0.85-2.26-2.76v-2.58h-5.35v2.27
		c0,5.35,2.75,8.29,7.75,8.29c5,0,7.75-2.94,7.75-8.29C280.04,126.54,278.58,123.88,274.45,120.25z"/>
	<path class="st0" d="M232.48,105.99l-5.18,32.35h5.23l0.86-5.75h5.56l0.86,5.75h5.68l-5.18-32.35H232.48z M234.12,127.64
		l2.03-13.82l2.03,13.82H234.12z"/>
	<path class="st0" d="M370.43,63.18v-0.94c0-1.22,0.08-2.4,0.24-3.56c-11.27-19.35-21.45-36.77-24.95-42.75h-0.14
		c8.15,15.71,16.49,31.59,24.85,47.5V63.18z"/>
	<path class="st0" d="M383.94,93.24h-1.02h-1.43v-1.43v-3.47c-2.55-5.09-5.11-10.16-7.66-15.09h-0.54h-2.86v-2.86v-1.53v-2.19
		c-11.3-21.86-20.73-41.78-25.39-50.75h-0.12c4.57,10.91,40.14,95.81,58.73,139.76c0-0.01,0-0.01,0.01-0.02l-0.95-24.87
		C397.45,120.67,390.85,107.13,383.94,93.24z"/>
	<path class="st0" d="M376.89,113.32c-1.12,0-1.74,0.67-1.74,1.83v1.33c0,1.07,0.43,1.67,1.27,1.67c0.51,0,0.84-0.22,1.04-0.64h0.02
		v1.32c0,0.7-0.23,0.9-0.64,0.9c-0.36,0-0.59-0.2-0.59-0.72v-0.26h-1.08v0.19c0,1.17,0.58,1.83,1.71,1.83c1.19,0,1.75-0.67,1.75-1.9
		v-3.73C378.63,113.99,378.02,113.32,376.89,113.32z M377.49,116.4c0,0.52-0.23,0.72-0.59,0.72s-0.59-0.2-0.59-0.72v-1.31
		c0-0.52,0.23-0.71,0.59-0.71s0.59,0.19,0.59,0.71V116.4z"/>
	<path class="st0" d="M381.02,113.32c-1.12,0-1.74,0.67-1.74,1.83v1.33c0,1.07,0.43,1.67,1.27,1.67c0.51,0,0.84-0.22,1.04-0.64h0.02
		v1.32c0,0.7-0.23,0.9-0.64,0.9c-0.36,0-0.59-0.2-0.59-0.72v-0.26h-1.08v0.19c0,1.17,0.58,1.83,1.71,1.83c1.19,0,1.75-0.67,1.75-1.9
		v-3.73C382.76,113.99,382.14,113.32,381.02,113.32z M381.61,116.4c0,0.52-0.23,0.72-0.59,0.72s-0.59-0.2-0.59-0.72v-1.31
		c0-0.52,0.23-0.71,0.59-0.71s0.59,0.19,0.59,0.71V116.4z"/>
	<path class="st0" d="M373.29,62.23v0.94v5.69v1.53h0h0.02h0.78h3.4h24.68V60.28h-17.98c-0.01-0.17-0.01-0.35-0.01-0.54
		c0-3.07,1.69-5.88,6.94-11.54c8.68-9.28,11.91-15.88,11.91-24.36c0-10.26-5.28-15.9-14.87-15.9c-9.59,0-14.87,5.65-14.87,15.9v6.61
		h10.46v-7.21c0-2.41,0.47-5.19,4.15-5.19c2.01,0,4.15,0.47,4.15,6.13c0,5.64-1.45,10.24-9.09,18.33
		C375.91,49.92,373.29,55.26,373.29,62.23z"/>
	<path class="st0" d="M218.53,105.63c-5,0-7.75,2.94-7.75,8.29v16.49c0,5.35,2.75,8.29,7.75,8.29c5,0,7.75-2.94,7.75-8.29v-4.53
		h-5.35v4.85c0,1.91-0.7,2.76-2.26,2.76c-1.56,0-2.26-0.85-2.26-2.76V113.6c0-2.51,1.29-2.81,2.26-2.81c0.97,0,2.26,0.29,2.26,2.81
		v3.72h5.35v-3.4C226.28,108.57,223.53,105.63,218.53,105.63z"/>
	<path class="st0" d="M428.07,81.58c2.17-4.12,4.34-8.25,6.51-12.37c-0.13,0.13-0.25,0.26-0.39,0.38c-1.38,1.24-2.99,2.18-4.81,2.84
		c-0.84,1.45-1.61,2.76-2.28,3.91c0.62,0.89,0.97,2.05,0.97,3.47v0.5V81.58z"/>
	<path class="st0" d="M407.85,50.41v4.84c0,9.86,4.93,15.49,14.43,15.49c4.27,0,7.61-1.14,10-3.28c1.78-1.6,3.04-3.75,3.75-6.42
		c0.46-1.72,0.69-3.66,0.69-5.79v-13.9c0-9.06-3.61-14.08-10.74-14.08c-3.87,0-6.6,1.58-8.36,4.49h-0.18l0.79-14.7h16.9v-8.8h-25.52
		l-1.76,34.41h9.15v-0.53c0-4.4,1.94-6.07,5.02-6.07c3.08,0,5.02,1.67,5.02,6.07v13.82c0,4.4-1.94,5.98-5.02,5.98
		c-3.08,0-5.02-1.58-5.02-5.98v-5.54H407.85z"/>
	<path class="st0" d="M430.52,113.31c-0.45,0-0.83,0.16-1.14,0.48c-0.32,0.31-0.47,0.69-0.47,1.14v4.05c0,0.44,0.16,0.82,0.47,1.14
		c0.31,0.31,0.69,0.47,1.14,0.47c0.44,0,0.82-0.16,1.14-0.47c0.32-0.32,0.47-0.7,0.47-1.14v-4.05c0-0.45-0.16-0.83-0.47-1.14
		C431.34,113.46,430.96,113.31,430.52,113.31z M430.93,118.97c0,0.11-0.04,0.21-0.12,0.29c-0.08,0.08-0.18,0.12-0.29,0.12
		c-0.11,0-0.21-0.04-0.29-0.12c-0.08-0.08-0.12-0.18-0.12-0.29v-4.05c0-0.11,0.04-0.21,0.12-0.29c0.08-0.08,0.18-0.12,0.29-0.12
		s0.21,0.04,0.29,0.12c0.08,0.08,0.12,0.18,0.12,0.29V118.97z"/>
	<path class="st0" d="M415.08,91.81h2.53c-0.25-0.59-0.27-1.15-0.27-1.92v-2.44c0-1.65-0.41-2.82-1.65-3.34v-0.05
		c1.11-0.52,1.62-1.56,1.62-3.18v-1.24c0-2.44-1.11-3.63-3.68-3.63h-3.75v15.8h2.48v-6.43h0.86c1.13,0,1.62,0.54,1.62,2.01v2.48
		C414.85,91.16,414.94,91.41,415.08,91.81z M414.83,81.46c0,1.26-0.56,1.67-1.49,1.67h-0.97v-4.85h1.2c0.88,0,1.26,0.5,1.26,1.63
		V81.46z"/>
	<path class="st0" d="M405.3,115.63l-0.31,11.25c0,0,0,0,0,0c5.57-10.73,11.24-22.43,16.94-33.55c-0.22-0.04-0.44-0.08-0.66-0.14
		c-0.82-0.23-1.5-0.64-2.05-1.2l0.53,1.25h-2.16h-0.08c-4.71,8.62-9.62,17.84-12.22,22.4C405.31,115.64,405.3,115.63,405.3,115.63z"
		/>
	<path class="st0" d="M401.62,76.02l-2.53,15.8h2.28l0.43-2.87h3.05l0.43,2.87h2.51l-2.53-15.8H401.62z M402.12,86.8l1.17-7.99h0.05
		l1.17,7.99H402.12z"/>
	<path class="st0" d="M194.03,105.63c-5,0-7.75,2.94-7.75,8.29v16.49c0,5.35,2.75,8.29,7.75,8.29c5,0,7.75-2.94,7.75-8.29v-4.53
		h-5.35v4.85c0,1.91-0.7,2.76-2.26,2.76c-1.56,0-2.26-0.85-2.26-2.76V113.6c0-2.51,1.29-2.81,2.26-2.81c0.97,0,2.26,0.29,2.26,2.81
		v3.72h5.35v-3.4C201.78,108.57,199.03,105.63,194.03,105.63z"/>
	<polygon class="st0" points="385.41,91.81 385.41,90.17 385.41,86.58 388.54,76.02 386.18,76.02 384.3,83.22 384.26,83.22 
		382.38,76.02 379.79,76.02 382.5,85.16 382.93,86.58 382.93,91.81 	"/>
	<path class="st0" d="M379.93,74.59c-0.26-0.45-0.52-0.89-0.78-1.34h-1.66h-1.89c1.44,2.74,2.88,5.48,4.32,8.22l-1.5-5.05
		l-0.55-1.84h1.92H379.93z"/>
	<path class="st0" d="M419.26,87.05v0.97c0,2.03,0.83,3.34,2.41,3.79c0.39,0.11,0.81,0.18,1.29,0.18c2.44,0,3.7-1.44,3.7-3.97
		c0-1.15-0.27-2.09-0.99-3.1c-0.42-0.58-0.98-1.18-1.74-1.84c-1.62-1.42-2.12-2.28-2.12-3.43c0-1.13,0.45-1.56,1.24-1.56
		c0.79,0,1.24,0.43,1.24,1.56v0.65h2.35v-0.5c0-2.53-1.24-3.97-3.66-3.97c-2.41,0-3.66,1.44-3.66,3.97c0,1.81,0.65,3.11,2.73,4.94
		c1.33,1.17,1.9,1.96,2.06,2.84c0.04,0.19,0.06,0.39,0.06,0.59c0,1.13-0.5,1.53-1.29,1.53c0,0-0.01,0-0.01,0
		c-0.78,0-1.28-0.41-1.28-1.53v-1.13H419.26z"/>
	<path class="st0" d="M434.34,113.31c-0.88,0-1.61,0.73-1.61,1.62v0.77h1.2v-0.77c0-0.23,0.19-0.41,0.41-0.41s0.41,0.19,0.41,0.41
		v1.16c0,1.45-2.02,1.17-2.02,3.33v1.17h3.23v-1.2h-1.2h-0.82v-0.27c0-0.22,0.12-0.47,0.42-0.7c0.35-0.27,0.83-0.56,1.13-0.9
		c0.42-0.47,0.47-1.02,0.47-1.47v-1.12c0-0.45-0.16-0.83-0.47-1.14C435.16,113.46,434.78,113.31,434.34,113.31z"/>
	<path class="st0" d="M402.7,115.63c-3.4-5.95-6.91-13.69-11.87-22.25h0l-0.02-0.03c-0.02-0.03-0.04-0.07-0.06-0.1h-0.27h-1.43
		v-1.43v-1.5c-0.35-0.61-0.7-1.21-1.06-1.82v0l-1.11-1.91l-0.06,0.2v3.38v1.65v1.43h-0.76c5.81,11.26,11.19,22.49,16.97,33.64
		L402.7,115.63z"/>
	<polygon class="st0" points="397.26,78.27 397.26,76.02 390.49,76.02 390.49,91.81 397.26,91.81 397.26,89.56 392.97,89.56 
		392.97,84.93 396.38,84.93 396.38,82.68 392.97,82.68 392.97,78.27 	"/>
	<path class="st0" d="M426.71,113.31c-0.88,0-1.61,0.73-1.61,1.62v0.77h1.2v-0.77c0-0.23,0.19-0.41,0.41-0.41s0.41,0.19,0.41,0.41
		v1.16c0,1.45-2.02,1.17-2.02,3.33v1.17h3.23v-1.2h-1.2h-0.82v-0.27c0-0.22,0.12-0.47,0.42-0.7c0.35-0.27,0.83-0.56,1.13-0.9
		c0.42-0.47,0.47-1.02,0.47-1.47v-1.12c0-0.45-0.16-0.83-0.47-1.14C427.53,113.46,427.15,113.31,426.71,113.31z"/>
	<path class="st0" d="M100.28,105.63c-5,0-7.75,2.94-7.75,8.29v16.49c0,5.35,2.75,8.29,7.75,8.29c5,0,7.75-2.94,7.75-8.29v-4.53
		h-5.35v4.85c0,2.45-1.21,2.76-2.26,2.76c-1.56,0-2.26-0.85-2.26-2.76V113.6c0-2.51,1.29-2.81,2.26-2.81c0.97,0,2.26,0.29,2.26,2.81
		v3.72h5.35v-3.4C108.03,108.57,105.28,105.63,100.28,105.63z"/>
	<path class="st0" d="M427.99,81.74h-1.35h-2.07c0.09,0.09,0.2,0.18,0.3,0.27c0.81,0.71,1.43,1.38,1.91,2.02
		C427.18,83.26,427.58,82.5,427.99,81.74z"/>
	<path class="st0" d="M439.54,117.89v-4.32v-0.26h-0.26h-0.7h-0.18l-0.07,0.16l-1.94,4.58l-0.02,0.1v0.68v0.26h0.26h1.7v1.23v0.26
		h0.26h0.68h0.26v-0.26v-1.23h0.11h0.26v-0.26v-0.67v-0.26h-0.26H439.54z M438.34,117.89h-0.58l0.58-1.41V117.89z"/>
	<path class="st0" d="M153.35,120.25L153.35,120.25c-3.1-2.71-4.15-4.39-4.15-6.64c0-2.49,1.16-2.81,2.17-2.81
		c1.01,0,2.17,0.32,2.17,2.81v1.63h5.35v-1.32c0-5.35-2.72-8.29-7.66-8.29c-4.94,0-7.66,2.94-7.66,8.29c0,3.87,1.46,6.53,5.59,10.16
		c3.1,2.71,4.15,4.39,4.15,6.64c0,1.91-0.7,2.76-2.26,2.76c-1.56,0-2.26-0.85-2.26-2.76v-2.58h-5.35v2.27
		c0,5.35,2.75,8.29,7.75,8.29c5,0,7.75-2.94,7.75-8.29C158.93,126.54,157.47,123.88,153.35,120.25z"/>
	<path class="st0" d="M129.58,105.99l-5.18,32.35h5.23l0.86-5.75h5.56l0.86,5.75h5.68l-5.18-32.35H129.58z M131.22,127.64
		l2.03-13.82l2.03,13.82H131.22z"/>
	<path class="st0" d="M170.28,120.25L170.28,120.25c-3.1-2.71-4.15-4.39-4.15-6.64c0-2.49,1.16-2.81,2.17-2.81
		c1.01,0,2.17,0.32,2.17,2.81v1.63h5.35v-1.32c0-5.35-2.72-8.29-7.66-8.29c-4.94,0-7.66,2.94-7.66,8.29c0,3.87,1.46,6.53,5.59,10.16
		c3.1,2.71,4.15,4.39,4.15,6.64c0,1.91-0.7,2.76-2.26,2.76c-1.56,0-2.26-0.85-2.26-2.76v-2.58h-5.35v2.27
		c0,5.35,2.75,8.29,7.75,8.29c5,0,7.75-2.94,7.75-8.29C175.87,126.54,174.41,123.88,170.28,120.25z"/>
	<rect x="178.08" y="105.99" class="st0" width="5.62" height="32.35"/>
	<polygon class="st0" points="115.19,105.99 109.57,105.99 109.57,138.34 123.39,138.34 123.39,133.17 115.19,133.17 	"/>
	<path class="st0" d="M344.53,95.96c-0.01,0-0.03,0-0.04,0c-0.33,0-0.43,0.34-0.26,0.61c2.89,4.69,1.83,8.95,1.46,10.28
		c-0.53,1.92-1.77,3.66-3.43,4.76c-2.9,1.92-5.93,1.39-9.01,0.29c-0.19-0.07-1.65-0.63-2.98-1.14c-1.16-0.45-2.22-0.87-2.21-0.89
		c1.23-1.95,2.42-3.92,3.6-5.89c6.73-11.27,12.71-22.92,18.65-34.6c0.59-1.16,1.54-0.72,1.53-2.12c-0.01-1.02-1.16-2.55-1.71-3.39
		c-0.73-1.1-4.17-5.48-6.24-5.48c-0.58,0-1.05,0.34-1.33,1.18c-1.69,5.13-4.84,9.68-8.59,13.87c-4.84,5.4-10.68,10.19-15.73,14.82
		c-0.65,0.59-1.66,1.53-2.65,1.53c-0.03,0-0.05,0-0.08,0c-2.33-0.13,2.35-7.94,2.76-8.71c2.42-4.55,5.15-8.92,7.65-13.43
		c0.45-0.8,0.9-1.62,0.98-2.53c0.21-2.26-3.94-9.07-7.07-9.08c-0.19,0-0.37,0.02-0.55,0.08c-1.62,0.47-2.76,4.81-3.24,6.04
		c-1,2.52-4.14,9.22-6.7,14.64c-1.39,2.95-2.62,5.53-3.22,6.83c-1.87,1.36-4.17,3.81-4.58,4.21c-2.47,2.36-4.98,4.67-7.53,6.96
		c-0.38,0.34-0.9,0.7-1.38,0.7c-0.16,0-0.32-0.04-0.47-0.14c-0.56-0.37-0.41-1.19-0.19-1.8c2.66-7.35,5.98-14.49,9.92-21.29
		c1.2-2.08,2.49-4.2,2.81-6.56c0.6-4.49-3.68-7.41-7.42-9.19c-0.16-0.08-0.35-0.15-0.53-0.15c-0.08,0-0.17,0.02-0.24,0.06
		c-0.19,0.1-0.26,0.32-0.32,0.52c-0.43,1.44-0.86,2.89-1.29,4.33c-0.14,0.47-0.35,1.01-0.84,1.17c-0.09,0.03-0.17,0.04-0.26,0.04
		c-0.32,0-0.63-0.15-0.91-0.31c-4.04-2.31-6.85-5.17-10.54-5.17c-1.57,0-3.3,0.52-5.35,1.81c-4.5,2.84-7.67,7.48-10.81,11.46
		c-1.03,1.31-2.13,2.7-3.18,4.17c-4.16,5.8-7.74,12.7-4.77,19.49c1.43,3.26,3.97,4.63,6.74,4.63c2.23,0,4.62-0.88,6.69-2.38
		c2.45-1.76,4.64-4.05,6.74-6.17c2.3-2.32,4.42-4.79,6.74-7.09c-1.27,3.25-1.92,6.72-1.92,10.19c0,1.85,0.24,3.82,1.47,5.24
		c2.28,2.63,6.28,2.08,9.06,0.67c1.93-0.98,3.71-2.35,5.35-3.75c0.87-0.74,1.7-1.51,2.51-2.31c0.4-0.4,0.8-0.81,1.19-1.22
		c0.24-0.26,1.1-0.92,1.15-1.26c-0.07,0.51-0.14,1.01-0.16,1.5c-0.15,2.88,1.33,5.52,3.77,6.44c1.61,0.61,3.35,0.35,4.88-0.36
		c1.84-0.85,3.36-2.24,4.81-3.62c5.43-5.18,10.87-10.37,16.3-15.55c-2.91,7.03-5.6,14.18-8.97,21.02c-1.34,2.73-2.73,5.01-4.16,6.86
		c-0.03,0.04-2.31-0.66-2.48-0.71c-1.56-0.39-3.13-0.77-4.7-1.13c-4.68-1.08-9.61-0.51-14.03,1.31c-4.01,1.65-7.92,5.36-6.22,9.94
		c1.46,3.94,6.17,5.31,9.95,5.6c4.38,0.34,8.86-0.42,12.84-2.29c2.97-1.4,5.31-3.7,8.05-5.47c0.15-0.1,0.42-0.35,0.62-0.35
		c1.48,0.63,3.02,1.27,4.6,1.86c4.27,1.6,9,2.72,13.59,1.8c3.96-0.79,7.6-3.15,9.93-6.46c0.78-1.1,1.4-2.31,1.83-3.59
		c0.72-2.14,0.71-3.93,0.18-5.4C353.3,98.28,350.45,95.96,344.53,95.96z M282.82,77.06c-1.89,2.22-3.82,4.41-5.79,6.57
		c-1.72,1.87-3.24,3.89-5.32,5.42c-0.29,0.21-0.59,0.37-0.87,0.47c-0.21,0.07-0.41,0.11-0.6,0.11c-0.59,0-1-0.4-0.93-1.35
		c0.08-0.94,0.42-1.87,0.78-2.74c0.85-2.06,2.08-3.95,3.29-5.83c1.69-2.62,3.54-5.15,5.47-7.62c2.32-2.97,5.49-6.64,9.74-6.64
		c0.94,0,2.09,0.32,3.44,0.97c-0.01,0-0.02-0.01-0.03-0.01C291.27,66.43,283.7,76.03,282.82,77.06z M309.87,115.75
		c-2.39,0.75-4.46,1.13-6.21,1.13c-0.19,0-0.37,0-0.55-0.01c-0.07,0-0.13-0.02-0.21-0.02c-5.87-0.42-5.29-6.26,0.09-7.46
		c2.79-0.62,5.71-0.6,8.51-0.04c1.25,0.25,2.48,0.64,3.71,1c0.19,0.05,1.78,0.53,2.21,0.69
		C315.03,113.34,312.51,114.92,309.87,115.75z"/>
	<path class="st0" d="M372.77,113.32c-1.12,0-1.74,0.67-1.74,1.83v1.33c0,1.07,0.43,1.67,1.27,1.67c0.51,0,0.84-0.22,1.04-0.64h0.02
		v1.32c0,0.7-0.23,0.9-0.64,0.9c-0.36,0-0.59-0.2-0.59-0.72v-0.26h-1.08v0.19c0,1.17,0.58,1.83,1.71,1.83c1.19,0,1.75-0.67,1.75-1.9
		v-3.73C374.51,113.99,373.89,113.32,372.77,113.32z M373.36,116.4c0,0.52-0.23,0.72-0.59,0.72s-0.59-0.2-0.59-0.72v-1.31
		c0-0.52,0.23-0.71,0.59-0.71s0.59,0.19,0.59,0.71V116.4z"/>
	<path class="st0" d="M427.86,86.28c0.14,0.55,0.23,1.12,0.23,1.75c0,2.85-1.37,4.72-3.73,5.24c-6.97,13.9-13.69,27.19-19.06,37.55
		l0,0l-0.95,24.87c18.58-43.96,54.24-128.83,58.82-139.75h-0.12C457.65,26.33,442.59,56.83,427.86,86.28z"/>
	<path class="st0" d="M367.72,114.32v0.81h0.89v5.56h1.15v-7.29h-0.77C368.81,113.9,368.61,114.32,367.72,114.32z"/>
</g>
</svg>
